 <svg version="1.0" xmlns="http://www.w3.org/2000/svg" width="700.000000pt" height="700.000000pt" viewBox="0 0 700.000000 700.000000" preserveAspectRatio="xMidYMid meet">
<metadata>
Created by potrace 1.12, written by Peter Selinger 2001-2015
</metadata>
<g transform="translate(0.000000,700.000000) scale(0.100000,-0.100000)" fill="#000000" stroke="none">
<path d="M3416 6054 c-5 -13 -24 -15 -123 -13 -83 2 -118 -1 -121 -9 -2 -7
-24 -12 -52 -12 -30 0 -52 -5 -60 -15 -7 -9 -29 -15 -55 -15 -26 0 -48 -6 -55
-15 -7 -8 -19 -15 -27 -15 -8 0 -22 -7 -30 -16 -9 -9 -26 -14 -40 -11 -12 2
-28 -2 -34 -9 -6 -8 -19 -14 -29 -14 -10 0 -23 -7 -30 -15 -7 -8 -20 -15 -30
-15 -10 0 -20 -7 -24 -15 -3 -8 -14 -15 -24 -15 -10 0 -29 -11 -42 -25 -13
-14 -31 -25 -40 -25 -9 0 -29 -13 -45 -30 -16 -16 -36 -30 -45 -30 -8 0 -45
-29 -80 -65 -35 -36 -72 -65 -81 -65 -19 0 -49 -31 -49 -51 0 -8 -31 -46 -70
-84 -38 -38 -70 -76 -70 -83 0 -8 -13 -30 -30 -49 -17 -18 -30 -40 -30 -47 0
-7 -11 -23 -25 -36 -14 -13 -25 -32 -25 -42 0 -10 -4 -18 -8 -18 -9 0 -42 -69
-42 -87 0 -6 -7 -16 -15 -23 -8 -7 -15 -27 -15 -45 0 -20 -6 -35 -15 -39 -8
-3 -15 -14 -15 -24 0 -11 -7 -25 -15 -32 -9 -8 -15 -30 -15 -60 0 -31 -5 -50
-13 -53 -10 -4 -13 -20 -9 -59 3 -41 0 -57 -12 -67 -14 -12 -16 -46 -16 -266
0 -220 2 -254 16 -266 12 -10 15 -26 12 -66 -3 -37 -1 -57 9 -64 7 -6 13 -27
13 -46 0 -21 6 -36 15 -39 9 -4 15 -19 15 -39 0 -18 7 -38 15 -45 8 -7 15 -28
15 -46 0 -19 4 -34 8 -34 9 0 42 -69 42 -87 0 -6 7 -16 15 -23 8 -7 15 -20 15
-29 0 -10 14 -30 30 -46 17 -16 30 -34 30 -40 0 -6 11 -22 25 -35 14 -13 25
-31 25 -40 0 -9 11 -27 25 -40 14 -13 25 -31 25 -40 0 -9 13 -29 30 -45 16
-16 30 -35 30 -43 0 -8 11 -25 25 -38 14 -13 25 -29 25 -37 0 -7 13 -26 30
-42 17 -16 30 -36 30 -45 0 -9 11 -27 25 -40 14 -13 25 -31 25 -41 0 -9 7 -22
15 -29 8 -7 15 -20 15 -30 0 -10 7 -20 15 -24 9 -3 15 -18 15 -35 0 -16 7 -42
15 -57 13 -23 15 -60 13 -184 l-2 -155 984 0 984 0 -3 160 c-2 131 1 164 13
180 8 11 16 35 16 53 0 20 6 35 15 38 8 4 15 14 15 24 0 10 7 23 15 30 8 7 15
20 15 29 0 10 11 28 25 41 14 13 25 31 25 41 0 9 7 22 15 29 8 7 15 21 15 30
0 10 11 27 25 38 14 11 25 26 25 34 0 8 20 34 45 58 25 24 45 51 45 60 0 9 11
27 25 40 14 13 25 31 25 40 0 9 11 27 25 40 14 13 25 29 25 35 0 6 14 24 30
40 17 16 30 36 30 46 0 9 7 22 15 29 8 7 15 17 15 23 0 18 33 87 42 87 4 0 8
15 8 34 0 18 7 39 15 46 8 7 15 27 15 45 0 20 6 35 15 39 9 3 15 18 15 39 0
19 6 40 13 46 10 7 12 27 9 64 -3 40 0 56 12 66 14 12 16 46 16 266 0 212 -2
255 -15 265 -10 8 -15 31 -15 71 0 33 -4 59 -10 59 -5 0 -10 15 -10 34 0 18
-7 39 -15 46 -8 7 -15 28 -15 47 0 21 -6 36 -15 39 -9 4 -15 19 -15 39 0 18
-7 38 -15 45 -8 7 -15 17 -15 23 0 18 -33 87 -42 87 -4 0 -8 8 -8 18 0 10 -11
29 -25 42 -14 13 -25 29 -25 36 0 7 -13 29 -30 47 -16 19 -30 41 -30 49 0 7
-31 45 -70 83 -38 38 -70 77 -70 86 0 19 -31 49 -51 49 -8 0 -44 29 -79 65
-35 36 -72 65 -80 65 -9 0 -29 14 -45 30 -16 17 -36 30 -45 30 -9 0 -27 11
-40 25 -13 14 -32 25 -42 25 -10 0 -21 7 -24 15 -4 8 -14 15 -24 15 -10 0 -23
7 -30 15 -7 8 -20 15 -30 15 -10 0 -23 7 -30 15 -7 9 -21 13 -35 9 -13 -3 -28
1 -38 10 -8 9 -29 16 -45 16 -16 0 -35 7 -42 15 -7 8 -25 15 -40 15 -15 0 -33
7 -40 15 -8 10 -30 15 -60 15 -28 0 -50 5 -52 12 -3 8 -38 11 -121 9 -99 -2
-118 0 -123 13 -5 13 -22 16 -84 16 -62 0 -79 -3 -84 -16z m-419 -1356 c18
-18 33 -39 33 -48 0 -9 20 -36 45 -60 25 -24 45 -49 45 -56 0 -6 16 -28 35
-48 39 -41 68 -44 73 -7 2 13 33 51 68 86 35 34 64 68 64 76 0 7 17 30 37 51
56 58 73 53 175 -49 49 -48 88 -95 88 -103 0 -23 106 -125 115 -110 4 6 5 17
2 24 -3 7 25 44 64 82 38 38 69 75 69 83 0 8 14 30 32 48 58 60 73 53 236
-110 127 -127 143 -147 140 -173 -2 -24 -8 -30 -33 -32 -28 -3 -44 11 -155
122 -68 69 -127 123 -132 120 -4 -3 -8 -13 -8 -22 0 -10 -31 -49 -70 -87 -38
-38 -70 -76 -70 -84 0 -8 -14 -30 -32 -48 -49 -51 -70 -45 -160 44 -43 43 -78
85 -78 93 0 19 -123 143 -133 134 -4 -4 -7 -17 -7 -28 0 -13 -26 -47 -65 -86
-36 -35 -65 -71 -65 -79 0 -9 -21 -37 -47 -63 -36 -37 -55 -48 -78 -48 -31 0
-65 28 -65 53 0 7 -16 29 -36 48 -19 18 -41 48 -49 64 -7 17 -31 48 -54 69
l-41 40 -35 -34 c-19 -19 -35 -41 -35 -50 0 -9 -18 -34 -40 -55 -22 -21 -40
-44 -40 -50 -1 -5 -9 -20 -20 -33 -14 -17 -28 -23 -52 -20 -29 3 -33 7 -36 34
-2 19 3 36 12 44 9 7 16 20 16 29 0 9 18 35 40 56 22 21 40 44 40 50 0 6 18
30 40 53 22 22 40 47 40 53 0 22 43 59 69 59 15 0 39 -13 58 -32z"></path>
</g>
</svg>