<?xml version="1.0" standalone="no"?>
<!DOCTYPE svg PUBLIC "-//W3C//DTD SVG 20010904//EN"
 "http://www.w3.org/TR/2001/REC-SVG-20010904/DTD/svg10.dtd">
<svg version="1.0" xmlns="http://www.w3.org/2000/svg"
 width="256.000000pt" height="256.000000pt" viewBox="0 0 256.000000 256.000000"
 preserveAspectRatio="xMidYMid meet">

<g transform="translate(0.000000,256.000000) scale(0.100000,-0.100000)"
fill="#000000" stroke="none">
<path d="M0 1280 l0 -1280 1280 0 1280 0 0 1280 0 1280 -1280 0 -1280 0 0
-1280z m1125 400 c20 -27 40 -50 43 -50 4 1 25 23 46 50 22 28 45 50 52 50 7
0 34 -25 60 -55 l47 -54 40 49 c22 28 45 50 51 50 15 0 116 -102 116 -117 0
-25 -26 -13 -69 31 l-44 45 -40 -50 c-22 -27 -46 -49 -53 -49 -7 0 -34 25 -59
55 l-47 55 -45 -55 c-25 -30 -51 -55 -58 -55 -6 0 -26 20 -44 45 -17 24 -36
47 -41 50 -5 3 -23 -15 -41 -40 -31 -44 -59 -59 -59 -32 0 19 82 127 96 127 7
0 29 -22 49 -50z"/>
</g>
</svg>
