<?xml version="1.0" standalone="no"?>
<!DOCTYPE svg PUBLIC "-//W3C//DTD SVG 20010904//EN"
 "http://www.w3.org/TR/2001/REC-SVG-20010904/DTD/svg10.dtd">
<svg version="1.0" xmlns="http://www.w3.org/2000/svg"
 width="256.000000pt" height="256.000000pt" viewBox="0 0 256.000000 256.000000"
 preserveAspectRatio="xMidYMid meet">
<metadata>
Created by potrace 1.15, written by Peter Selinger 2001-2017
</metadata>
<g transform="translate(0.000000,256.000000) scale(0.100000,-0.100000)"
fill="#000000" stroke="none">
<path d="M1195 2210 c-220 -30 -408 -183 -487 -396 -18 -49 -22 -81 -23 -184
0 -162 18 -218 128 -383 98 -149 107 -170 107 -247 l0 -60 360 0 360 0 0 64
c0 74 18 114 122 267 92 134 113 201 113 354 0 99 -4 131 -23 187 -93 268
-371 436 -657 398z m-70 -530 c20 -27 40 -50 43 -50 4 1 25 23 46 50 22 28 45
50 52 50 7 0 34 -25 60 -55 l47 -54 40 49 c22 28 45 50 51 50 15 0 116 -102
116 -117 0 -25 -26 -13 -69 31 l-44 45 -40 -50 c-22 -27 -46 -49 -53 -49 -7 0
-34 25 -59 55 l-47 55 -45 -55 c-25 -30 -51 -55 -58 -55 -6 0 -26 20 -44 45
-17 24 -36 47 -41 50 -5 3 -23 -15 -41 -40 -31 -44 -59 -59 -59 -32 0 19 82
127 96 127 7 0 29 -22 49 -50z"/>
</g>
</svg>
